<svg width="50" height="50" viewBox="0 0 50 50" fill="none" xmlns="http://www.w3.org/2000/svg">
<g clip-path="url(#clip0)">
<path d="M32.71 13.4575H8.76576C8.35951 13.4575 8.03021 13.7868 8.03021 14.193C8.03021 14.5993 8.35951 14.9286 8.76576 14.9286H32.7101C33.1163 14.9286 33.4456 14.5993 33.4456 14.193C33.4456 13.7868 33.1162 13.4575 32.71 13.4575Z" fill="white"/>
<path d="M8.76576 9.82638H20.7378C21.1441 9.82638 21.4734 9.49708 21.4734 9.09083C21.4734 8.68458 21.1441 8.35529 20.7378 8.35529H8.76576C8.35951 8.35529 8.03021 8.68458 8.03021 9.09083C8.03021 9.49718 8.35951 9.82638 8.76576 9.82638Z" fill="white"/>
<path d="M32.71 17.9781H8.76576C8.35951 17.9781 8.03021 18.3074 8.03021 18.7137C8.03021 19.1199 8.35951 19.4492 8.76576 19.4492H32.7101C33.1163 19.4492 33.4456 19.1199 33.4456 18.7137C33.4455 18.3074 33.1162 17.9781 32.71 17.9781Z" fill="white"/>
<path d="M14.2201 44.8895H6.55729C5.29957 44.8895 4.27623 43.8662 4.27623 42.6085V3.75205C4.27623 2.49434 5.29957 1.471 6.55729 1.471H28.6331C28.7044 1.471 28.7746 1.47754 28.844 1.48691V6.07422C28.844 8.14316 30.5272 9.82627 32.5961 9.82627H37.1833C37.1927 9.8958 37.1992 9.96602 37.1992 10.0373V22.5628C37.1992 22.969 37.5285 23.2983 37.9347 23.2983C38.341 23.2983 38.6703 22.969 38.6703 22.5628V10.0374C38.6703 9.23057 38.356 8.47197 37.7855 7.90137L30.7689 0.884766C30.1984 0.314258 29.4399 0 28.6331 0H6.55729C4.48834 0 2.80524 1.6832 2.80524 3.75205V42.6085C2.80524 44.6773 4.48844 46.3604 6.55729 46.3604H14.2201C14.6263 46.3604 14.9556 46.0312 14.9556 45.6249C14.9556 45.2187 14.6263 44.8895 14.2201 44.8895ZM36.159 8.35527H32.5962C31.3384 8.35527 30.3151 7.33193 30.3151 6.07422V2.51133L36.159 8.35527Z" fill="white"/>
<path d="M46.9685 36.0088L40.7363 25.4893C40.2821 24.7223 39.2936 24.4688 38.5262 24.9234L37.0103 25.8215C35.8336 26.5186 35.3363 27.9292 35.7403 29.1793C35.2295 29.3644 34.6696 29.3614 34.1539 29.1621C32.9571 28.7856 32.0471 28.028 30.5443 28.4081C27.9925 29.0578 28.07 29.0253 27.8392 29.1044C26.345 28.2537 25.4469 28.0006 23.8608 28.6142L22.4469 29.1608C21.7923 29.4137 21.071 29.3537 20.4661 28.9953L20.0803 28.7679C20.2686 27.6398 19.7683 26.4492 18.7089 25.8217C18.7089 25.8217 18.7089 25.8217 18.7088 25.8216L17.193 24.9235C16.4278 24.4703 15.4363 24.724 14.983 25.4893L8.75061 36.0089C8.29641 36.7757 8.54914 37.7645 9.31633 38.2189L10.8321 39.1169C11.2908 39.3887 11.7949 39.5179 12.293 39.5179C12.8484 39.5179 13.3959 39.3569 13.8641 39.0538L14.18 39.2402L13.513 40.1693C12.7182 41.2765 12.9707 42.8161 14.0781 43.611C14.5903 43.9786 15.2336 44.1465 15.8989 44.042C16.0045 44.6591 16.3426 45.2366 16.8901 45.6298C17.4042 45.9989 18.0447 46.167 18.7112 46.062C18.817 46.6786 19.1549 47.2557 19.7021 47.6486C20.4374 48.1764 21.3517 48.2374 22.1135 47.912C22.2802 48.345 22.5699 48.7361 22.9741 49.0263C24.0296 49.7838 25.4835 49.5862 26.3036 48.6048L28.0761 49.6548C29.2483 50.3494 30.7607 49.9634 31.4557 48.7899C31.6334 48.4899 31.7437 48.1629 31.784 47.8269L31.788 47.8293C32.9584 48.5225 34.4742 48.1344 35.1676 46.9643C35.3684 46.6253 35.4784 46.2576 35.5052 45.8892C36.5368 46.1485 37.6612 45.7152 38.2305 44.7543C38.4173 44.4391 38.5256 44.0985 38.5613 43.7559C39.6669 44.1898 40.9592 43.7704 41.5836 42.7165C41.9195 42.1496 42.0145 41.486 41.8511 40.8476C41.7576 40.4823 41.5858 40.1508 41.3498 39.8708L42.3268 39.3C43.1532 39.6393 44.0964 39.585 44.8868 39.1168L46.4025 38.2188C47.1697 37.7647 47.4231 36.7761 46.9685 36.0088ZM11.582 37.8514L10.0661 36.9532C9.99875 36.9133 9.97639 36.826 10.0162 36.7586L16.2487 26.2388C16.2888 26.1711 16.3764 26.1491 16.4434 26.189L17.9591 27.0869C18.6326 27.486 18.8434 28.3499 18.4516 29.0111L13.5062 37.3588C13.1114 38.0252 12.2484 38.246 11.582 37.8514ZM14.936 42.416C14.4893 42.0953 14.3871 41.474 14.708 41.0272L15.6884 39.6615C16.0007 39.2265 16.6231 39.1074 17.0773 39.4335C17.5231 39.7535 17.6253 40.3765 17.3054 40.8223L16.3249 42.1879C16.0049 42.6339 15.3816 42.7359 14.936 42.416ZM17.748 44.4349C17.3022 44.1148 17.1999 43.4916 17.5199 43.0459L18.5003 41.6804C18.5003 41.6804 18.5003 41.6804 18.5003 41.6803C18.5003 41.6803 18.5003 41.6802 18.5004 41.6802L19.5823 40.1732C19.7374 39.9572 19.9672 39.8145 20.2295 39.7715C20.284 39.7625 20.3386 39.7581 20.3928 39.7581C20.5992 39.7581 20.8001 39.8224 20.9712 39.9451C21.187 40.1002 21.3298 40.3299 21.3728 40.5922C21.4158 40.8546 21.3542 41.118 21.1991 41.3339L19.1367 44.2068C18.8162 44.6535 18.1948 44.7558 17.748 44.4349ZM20.56 46.4535C20.1144 46.1336 20.012 45.511 20.3315 45.0653C20.3316 45.0651 20.3318 45.0649 20.3319 45.0647L22.3943 42.1919C22.7141 41.7462 23.3375 41.6439 23.7831 41.9638C24.2289 42.2838 24.3312 42.9068 24.0112 43.3526L23.0948 44.6291C23.0948 44.6291 23.0948 44.6291 23.0947 44.6292L21.9488 46.2255C21.6287 46.6713 21.0059 46.7737 20.56 46.4535ZM23.8321 47.8313C23.3865 47.5113 23.2841 46.889 23.6033 46.4432L24.2898 45.4871C24.6097 45.0412 25.233 44.9393 25.6786 45.2591C26.1243 45.579 26.2267 46.2022 25.9067 46.648L25.2208 47.6031C24.9009 48.049 24.2777 48.1514 23.8321 47.8313ZM40.3183 41.9668C40.0384 42.4392 39.4267 42.5958 38.9542 42.316C38.1542 41.8421 32.9937 38.7848 32.4435 38.4588C32.0939 38.2518 31.6428 38.3671 31.4358 38.7166C31.2287 39.0661 31.3441 39.5173 31.6936 39.7243L36.6157 42.6404L36.6158 42.6405C37.0884 42.9204 37.246 43.5303 36.9651 44.0047C36.6851 44.4773 36.0731 44.6336 35.6008 44.354C33.7803 43.2755 32.3021 42.3997 30.676 41.4363C30.3263 41.2293 29.8753 41.3446 29.6683 41.6942C29.4613 42.0437 29.5766 42.4948 29.9261 42.7019L33.5529 44.8505L33.5536 44.851C34.0265 45.1318 34.1825 45.7413 33.9022 46.2148C33.6222 46.6873 33.0104 46.8439 32.5378 46.564L30.5914 45.411C30.5912 45.4109 30.5909 45.4108 30.5907 45.4106C30.5905 45.4105 30.5904 45.4104 30.5902 45.4103L29.1697 44.5687C28.8201 44.3615 28.3691 44.4769 28.162 44.8265C27.955 45.176 28.0703 45.6272 28.4198 45.8342L29.8405 46.6759C29.8407 46.676 29.8409 46.6762 29.8411 46.6763C30.3137 46.9562 30.4713 47.5659 30.1904 48.0403C29.9104 48.5129 29.2986 48.6694 28.826 48.3896L27.1687 47.4078C27.8791 46.3115 27.6089 44.8342 26.5365 44.0645C26.2216 43.8385 25.8709 43.6978 25.5122 43.6373C25.8927 42.62 25.5647 41.4323 24.6409 40.7693C24.0941 40.3765 23.4393 40.2408 22.8213 40.3377C22.7113 39.6946 22.3597 39.1314 21.8291 38.7506C20.8313 38.0345 19.4752 38.1721 18.6376 39.0194C18.4674 38.7205 18.2324 38.4524 17.9352 38.239C17.106 37.6439 16.0294 37.6383 15.2085 38.1396L14.8715 37.9406L19.4975 30.1321L19.7177 30.262C20.6904 30.8382 21.8773 30.9583 22.9773 30.5329L24.3911 29.9863C25.2002 29.6736 25.6464 29.6532 26.4467 30.0309C25.9231 30.6192 25.6122 31.3915 25.6122 32.2239V35.4852C25.6122 36.3514 26.3164 37.0566 27.182 37.0571H27.1841C28.0523 37.0571 28.8687 36.7192 29.4828 36.1054C29.8408 35.7476 30.1051 35.321 30.2635 34.8554C31.2132 35.4178 39.0596 40.0642 39.9693 40.6031C40.1981 40.7387 40.3604 40.9552 40.4263 41.2128C40.4922 41.4701 40.4538 41.738 40.3183 41.9668ZM45.653 36.9532L44.1371 37.8514C43.4707 38.2459 42.6076 38.0249 42.2131 37.3589L39.8951 33.4463C39.688 33.0968 39.2366 32.9815 38.8874 33.1883C38.5379 33.3953 38.4225 33.8465 38.6294 34.196L40.9474 38.1087C40.991 38.1823 41.0384 38.2524 41.0874 38.3206L40.443 38.6971C40.3127 38.7742 40.1874 38.8592 40.0676 38.9515L30.0751 33.034C29.5856 32.7443 28.9649 33.0975 28.9649 33.6668C28.9572 33.7108 29.0408 34.4668 28.4429 35.0646C28.1066 35.4006 27.6595 35.5858 27.184 35.5858C27.1836 35.5858 27.1832 35.5858 27.1828 35.5858C27.1279 35.5858 27.0831 35.5404 27.0831 35.4848V32.2235C27.0831 31.3716 27.6693 30.6528 28.4619 30.4522L30.9049 29.8339C31.7913 29.6099 32.2924 30.0832 33.6196 30.5324C34.541 30.8889 35.5429 30.8669 36.4322 30.4871L36.8761 31.2365C37.0832 31.5862 37.5344 31.7015 37.8838 31.4945C38.2333 31.2875 38.3488 30.8363 38.1418 30.4868L37.2674 29.011C36.8718 28.3432 37.0922 27.4826 37.7599 27.0868L39.2757 26.1889C39.3419 26.1495 39.4295 26.1696 39.4705 26.2388L45.7028 36.7584C45.743 36.8263 45.7208 36.9131 45.653 36.9532Z" fill="#1357DD"/>
</g>
<defs>
<clipPath id="clip0">
<rect width="50" height="50" fill="white"/>
</clipPath>
</defs>
</svg>
