<svg width="50" height="50" viewBox="0 0 50 50" fill="none" xmlns="http://www.w3.org/2000/svg">
<g clip-path="url(#clip0)">
<path d="M27.1253 9.67901C27.1253 8.85928 26.4584 8.19238 25.6388 8.19238H22.4863C21.6665 8.19238 20.9996 8.85928 20.9996 9.67901V12.8315C20.9996 13.6513 21.6666 14.3182 22.4863 14.3182H25.6388C26.4585 14.3182 27.1253 13.6513 27.1253 12.8315V9.67901ZM25.6607 12.8315C25.6607 12.8436 25.6508 12.8533 25.6388 12.8533H22.4863C22.4741 12.8533 22.4643 12.8435 22.4643 12.8315V9.67901C22.4643 9.6669 22.4741 9.65713 22.4863 9.65713H25.6388C25.6508 9.65713 25.6607 9.66699 25.6607 9.67901V12.8315Z" fill="#1357DD"/>
<path d="M25.1253 17.7793C25.1253 16.9596 25.4584 16.2927 24.6388 16.2927H22.4863C21.6665 16.2927 20.9996 16.9596 20.9996 17.7793V20.9319C20.9996 21.7516 21.6666 22.4185 22.4863 22.4185H24.6388C25.4585 22.4185 25.1253 21.7516 25.1253 20.9319V17.7793ZM24.6607 20.9318C24.6607 20.9439 25.6508 20.9537 25.6388 20.9537H22.4863C22.4741 20.9537 22.4643 20.9438 22.4643 20.9318V17.7793C22.4643 17.7672 22.4741 17.7575 22.4863 17.7575H24.6388C24.6508 17.7575 23.6607 17.7673 24.6607 17.7793V20.9318Z" fill="#1357DD"/>
<path d="M25.6388 24.3931H22.4863C21.6665 24.3931 20.9996 25.06 20.9996 25.8797V29.0322C20.9996 29.852 21.6666 30.5188 22.4863 30.5188H25.6388C26.4585 30.5188 27.1253 29.852 27.1253 29.0322V25.8797C27.1253 25.06 26.4585 24.3931 25.6388 24.3931ZM25.6607 29.0322C25.6607 29.0443 25.6508 29.0541 25.6388 29.0541H22.4863C22.4741 29.0541 22.4643 29.0442 22.4643 29.0322V25.8797C22.4643 25.8676 22.4741 25.8578 22.4863 25.8578H25.6388C25.6508 25.8578 25.6607 25.8677 25.6607 25.8797V29.0322Z" fill="#1357DD"/>
<path d="M11.7222 9.67898C11.7222 8.85925 11.0553 8.19235 10.2357 8.19235H7.08324C6.26351 8.19235 5.59662 8.85925 5.59662 9.67898V12.8315C5.59662 13.6512 6.26361 14.3181 7.08324 14.3181H10.2358C11.0555 14.3181 11.7223 13.6512 11.7223 12.8315V9.67898H11.7222ZM10.2576 12.8314C10.2576 12.8435 10.2477 12.8533 10.2357 12.8533H7.08324C7.07113 12.8533 7.06127 12.8434 7.06127 12.8314V9.67898C7.06127 9.66687 7.07113 9.6571 7.08324 9.6571H10.2358C10.2478 9.6571 10.2577 9.66696 10.2577 9.67898V12.8314H10.2576Z" fill="#1357DD"/>
<path d="M19.5599 9.67901C19.5599 8.85928 18.893 8.19238 18.0734 8.19238H14.9208C14.1011 8.19238 13.4342 8.85928 13.4342 9.67901V12.8315C13.4342 13.6513 14.1012 14.3182 14.9208 14.3182H18.0734C18.8931 14.3182 19.5599 13.6513 19.5599 12.8315V9.67901ZM18.0952 12.8315C18.0952 12.8436 18.0854 12.8533 18.0734 12.8533H14.9208C14.9087 12.8533 14.8989 12.8435 14.8989 12.8315V9.67901C14.8989 9.6669 14.9087 9.65713 14.9208 9.65713H18.0734C18.0854 9.65713 18.0952 9.66699 18.0952 9.67901V12.8315Z" fill="#1357DD"/>
<path d="M11.7222 17.7794C11.7222 16.9596 11.0553 16.2928 10.2357 16.2928H7.08324C6.26351 16.2928 5.59662 16.9596 5.59662 17.7794V20.9319C5.59662 21.7516 6.26361 22.4185 7.08324 22.4185H10.2358C11.0555 22.4185 11.7223 21.7516 11.7223 20.9319V17.7794H11.7222ZM10.2576 20.9318C10.2576 20.9439 10.2477 20.9537 10.2357 20.9537H7.08324C7.07113 20.9537 7.06127 20.9438 7.06127 20.9318V17.7794C7.06127 17.7673 7.07113 17.7575 7.08324 17.7575H10.2358C10.2478 17.7575 10.2577 17.7674 10.2577 17.7794V20.9318H10.2576Z" fill="#1357DD"/>
<path d="M19.5599 17.7793C19.5599 16.9596 18.893 16.2927 18.0734 16.2927H14.9208C14.1011 16.2927 13.4342 16.9596 13.4342 17.7793V20.9319C13.4342 21.7516 14.1012 22.4185 14.9208 22.4185H18.0734C18.8931 22.4185 19.5599 21.7516 19.5599 20.9319V17.7793ZM18.0952 20.9318C18.0952 20.9439 18.0854 20.9537 18.0734 20.9537H14.9208C14.9087 20.9537 14.8989 20.9438 14.8989 20.9318V17.7793C14.8989 17.7672 14.9087 17.7575 14.9208 17.7575H18.0734C18.0854 17.7575 18.0952 17.7673 18.0952 17.7793V20.9318Z" fill="#1357DD"/>
<path d="M10.2357 24.3932H7.08324C6.26351 24.3932 5.59662 25.0601 5.59662 25.8798V29.0323C5.59662 29.852 6.26361 30.5189 7.08324 30.5189H10.2358C11.0555 30.5189 11.7223 29.852 11.7223 29.0323V25.8798C11.7222 25.0601 11.0554 24.3932 10.2357 24.3932ZM10.2576 29.0323C10.2576 29.0444 10.2477 29.0542 10.2357 29.0542H7.08324C7.07113 29.0542 7.06127 29.0443 7.06127 29.0323V25.8798C7.06127 25.8677 7.07113 25.8579 7.08324 25.8579H10.2358C10.2478 25.8579 10.2577 25.8678 10.2577 25.8798V29.0323H10.2576Z" fill="#1357DD"/>
<path d="M18.0734 24.3931H14.9208C14.1011 24.3931 13.4342 25.06 13.4342 25.8797V29.0322C13.4342 29.852 14.1012 30.5188 14.9208 30.5188H18.0734C18.8931 30.5188 19.5599 29.852 19.5599 29.0322V25.8797C19.5599 25.06 18.8931 24.3931 18.0734 24.3931ZM18.0952 29.0322C18.0952 29.0443 18.0854 29.0541 18.0734 29.0541H14.9208C14.9087 29.0541 14.8989 29.0442 14.8989 29.0322V25.8797C14.8989 25.8676 14.9087 25.8578 14.9208 25.8578H18.0734C18.0854 25.8578 18.0952 25.8677 18.0952 25.8797V29.0322Z" fill="#1357DD"/>
<path d="M47.6689 45.3429H46.582V39.1543C46.582 36.689 44.9298 34.4821 42.5643 33.7876L38.1287 32.4855C38.0037 32.3682 37.8596 32.2717 37.7021 32.2016L36.7812 31.7912C36.5206 31.6752 36.2429 31.6235 35.9683 31.6321V29.5672C37.4258 28.5049 38.4411 26.8642 38.6612 24.9731C39.3831 24.7947 39.92 24.1414 39.92 23.3651V21.3685V17.5366C39.92 16.1909 38.8457 15.0915 37.5097 15.0507C37.4375 13.7436 36.3513 12.7021 35.0264 12.7021H28.9795C28.4224 12.7021 27.9839 12.7651 27.3903 12.9753C26.508 13.2877 26.0248 13.6166 25.4052 14.3181C24.8272 14.9725 24.3566 16.2072 24.3566 17C24.3566 17 24.2085 20 24.2085 23.3652C24.2085 24.5 25.3996 25 25.3996 25C25.3996 25 25.8753 27.495 27.3975 28.9196C27.6828 29.1867 27.8901 29.3706 28.1602 29.5675V31.6284C27.8879 31.6219 27.613 31.6742 27.356 31.7896L26.4528 32.1952C26.2962 32.2654 26.1531 32.3617 26.029 32.4785L21.5669 33.7882C19.2012 34.4825 17.549 36.6894 17.549 39.1549V39.6521C17.549 40.0566 17.8768 40.3845 18.2813 40.3845C18.6858 40.3845 19.0136 40.0565 19.0136 39.6521V39.1549C19.0136 37.3351 20.2331 35.7061 21.9794 35.1936L25.6331 34.1212C25.708 34.3283 25.8283 34.5225 25.9938 34.6882L28.4956 37.1934C28.4981 37.1958 28.5005 37.1982 28.503 37.2006C28.8127 37.5021 29.2139 37.6547 29.6164 37.6546C29.7104 37.6546 29.8043 37.6459 29.8973 37.6292L30.4167 38.5214L29.2076 45.3429H23.5969V43.7518C23.5969 43.3473 23.2691 43.0194 22.8646 43.0194C22.4601 43.0194 22.1323 43.3474 22.1323 43.7518V45.3429H19.0139V43.0756C19.0139 42.6711 18.6861 42.3433 18.2816 42.3433C17.8771 42.3433 17.5492 42.6712 17.5492 43.0756V45.3429H14.5012V36.7967H14.5932C14.9977 36.7967 15.3255 36.4688 15.3255 36.0644C15.3255 35.6599 14.9977 35.332 14.5932 35.332H5.77581C5.37131 35.332 5.04348 35.66 5.04348 36.0644C5.04348 36.4688 5.37131 36.7967 5.77581 36.7967H5.8678V45.3429H3.21555V6.99248C3.21555 6.38252 3.71184 5.88633 4.3217 5.88633H28.6726C29.2825 5.88633 29.7786 6.38252 29.7786 6.99248V9.96221C29.7786 10.3667 30.1065 10.6945 30.511 10.6945C30.9155 10.6945 31.2433 10.3666 31.2433 9.96221V6.99248C31.2433 5.68623 30.2638 4.60518 29.0009 4.44336V1.80166C29.001 0.808203 28.1927 0 27.1992 0H5.79495C4.80149 0 3.99338 0.808203 3.99338 1.80166V4.44336C2.7304 4.60518 1.7509 5.68623 1.7509 6.99248V45.4158C0.746216 45.674 0.00158691 46.5873 0.00158691 47.6714C0.00158691 48.9554 1.04612 50 2.3302 50H47.669C48.953 50 49.9976 48.9554 49.9976 47.6714C49.9976 46.3874 48.953 45.3429 47.6689 45.3429ZM5.79495 1.46475H27.1992C27.3851 1.46475 27.5363 1.61592 27.5363 1.80166V4.42158H5.45803V1.80166C5.45803 1.61582 5.6092 1.46475 5.79495 1.46475ZM45.1173 39.1543V45.3429H41.9966V43.7518C41.9966 43.3473 41.6688 43.0194 41.2643 43.0194C40.8598 43.0194 40.532 43.3474 40.532 43.7518V45.3429H34.9242L33.7132 38.5139L34.2398 37.5702C34.3378 37.5889 34.437 37.599 34.5364 37.599C34.936 37.599 35.3353 37.4483 35.6469 37.1489L38.1498 34.7116C38.3219 34.5441 38.4466 34.3434 38.5231 34.1278L42.1519 35.1932C43.8978 35.7057 45.1173 37.3346 45.1173 39.1543ZM31.6058 37.6525L31.1447 36.8604L32.1267 36.0401L32.9996 36.7866L32.5164 37.6524L31.6058 37.6525ZM36.1851 33.1291L37.1062 33.5396C37.1528 33.5603 37.1664 33.6244 37.1279 33.6621L34.6285 36.096C34.5793 36.143 34.5034 36.1452 34.4518 36.1012L33.292 35.1095L35.7877 33.1771C35.9015 33.0889 36.0538 33.0706 36.1851 33.1291ZM35.0265 14.1669C35.5903 14.1669 36.0489 14.6255 36.0489 15.1893C36.0489 15.9198 36.6432 16.5143 37.3739 16.5143H37.4329C37.9967 16.5143 38.4553 16.9729 38.4553 17.5366V20.636H37.9751C37.7057 20.636 37.4865 20.4169 37.4865 20.1475V19.4792C37.4865 18.3108 36.5274 17.4558 35.4715 17.4558C35.2578 17.4558 35.042 17.4902 34.8308 17.56C33.0476 18.1494 31.0831 18.1496 29.2975 17.5596C27.9882 17.127 26.6421 18.0999 26.6421 19.4789V20.1475C26.6421 20.4169 26.4229 20.636 26.1534 20.636H25.6733V17.473C25.6733 15.6501 27.1564 14.1669 28.9795 14.1669H35.0265ZM26.898 24.5293C26.8633 23.9839 26.4095 23.5565 25.865 23.5565C25.7594 23.5565 25.6735 23.4706 25.6735 23.365V22.1008H26.1536C27.2307 22.1008 28.107 21.2245 28.107 20.1475V19.4789C28.107 19.1033 28.473 18.8298 28.8405 18.9512C30.9203 19.6383 33.2111 19.6381 35.2906 18.9507C35.6505 18.8318 36.0219 19.0988 36.0219 19.4792V20.1475C36.0219 21.2245 36.8982 22.1008 37.9752 22.1008H38.4554V23.365C38.4554 23.4706 38.3695 23.5565 38.2639 23.5565C37.7193 23.5565 37.2656 23.9838 37.2309 24.5296C37.0595 27.2476 34.7902 29.3767 32.0644 29.3767C29.3387 29.3767 27.0694 27.2476 26.898 24.5293ZM32.0645 30.8413C32.9234 30.8413 33.7466 30.6758 34.5036 30.3754V32.3187L32.1242 34.1611L29.6251 32.2937V30.3755C30.3823 30.6758 31.2055 30.8413 32.0645 30.8413ZM27.0306 33.6529C26.9909 33.6133 27.009 33.5508 27.053 33.5312L27.9561 33.1257C28.0853 33.0679 28.2358 33.0843 28.3494 33.169L30.9514 35.1134L29.7008 36.1579C29.6496 36.2006 29.5753 36.1985 29.5268 36.1533L27.0306 33.6529ZM31.7988 39.1172H32.3325L33.4366 45.3429H30.6953L31.7988 39.1172ZM7.33254 36.7967H13.0364V45.3429H7.33254V36.7967ZM47.6689 48.5353H2.3302C1.85383 48.5353 1.46633 48.1478 1.46633 47.6714C1.46633 47.195 1.85383 46.8076 2.3302 46.8076H47.669C48.1453 46.8076 48.5328 47.1951 48.5328 47.6714C48.5328 48.1477 48.1452 48.5353 47.6689 48.5353Z" fill="white"/>
</g>
<defs>
<clipPath id="clip0">
<rect width="50" height="50" fill="white"/>
</clipPath>
</defs>
</svg>
