<svg width="50" height="50" viewBox="0 0 50 50" fill="none" xmlns="http://www.w3.org/2000/svg">
<g clip-path="url(#clip0)">
<path d="M46.1812 27.4996C46.1715 27.4996 46.1616 27.4997 46.1517 27.4999C45.2017 27.4981 44.2861 27.8552 43.5883 28.4999L34.56 36.8333C34.0989 37.2616 33.4927 37.4997 32.8633 37.4999H20.2025C19.282 37.4999 18.5358 36.7538 18.5358 35.8333C18.5358 34.9128 19.282 34.1666 20.2025 34.1666H28.9642C30.8051 34.1666 32.2975 32.6742 32.2975 30.8333C32.2975 28.9923 30.8051 27.4999 28.9642 27.4999H15.3675C13.3369 27.4993 11.3472 28.0702 9.62583 29.1474L6.66667 30.9999V29.9999H0V50H6.66667V48.3333H24.2358C24.7874 48.3333 25.3381 48.2912 25.8833 48.2075L32.725 47.1549C35.0036 46.8092 37.1111 45.7413 38.7375 44.1083L48.8925 33.9516C49.6039 33.2445 50.0027 32.2821 50 31.2791C49.9892 29.1809 48.2794 27.4888 46.1812 27.4996ZM5 48.3333H1.66667V31.6666H5V48.3333ZM47.7133 32.7749L47.7142 32.7733L37.5592 42.9299C36.1829 44.3116 34.3997 45.2154 32.4717 45.5083L25.63 46.5608C25.1686 46.6313 24.7026 46.6667 24.2358 46.6666H6.66667V32.9616L10.51 30.5599C11.9664 29.649 13.6497 29.1661 15.3675 29.1666H28.9642C29.8847 29.1666 30.6308 29.9128 30.6308 30.8333C30.6308 31.7538 29.8847 32.4999 28.9642 32.4999H20.2025C18.3616 32.4999 16.8692 33.9923 16.8692 35.8333C16.8692 37.6742 18.3616 39.1666 20.2025 39.1666H32.8633C33.9111 39.1678 34.9207 38.7731 35.69 38.0616L44.7192 29.7283C45.1289 29.3561 45.6658 29.1557 46.2192 29.1683C47.3858 29.1679 48.3321 30.1133 48.3325 31.2799C48.3327 31.8407 48.1099 32.3785 47.7133 32.7749Z" fill="white"/>
<path d="M37.3333 8.66665C37.1759 8.45686 36.9289 8.33332 36.6667 8.33332H28.8975L25.7742 0.524152C25.6032 0.0968604 25.1183 -0.111056 24.6909 0.0598812C24.4792 0.144569 24.3113 0.312381 24.2267 0.524152L21.1025 8.33332H13.3333C12.8731 8.33332 12.5 8.70644 12.5 9.16665C12.5 9.42894 12.6235 9.67592 12.8333 9.83332L19.0058 14.4625L15.8833 23.0458C15.726 23.4783 15.9492 23.9564 16.3817 24.1137C16.6547 24.213 16.9597 24.1629 17.1867 23.9817L24.9708 17.7533L31.9458 23.9525C32.29 24.2581 32.8167 24.2269 33.1223 23.8827C33.309 23.6724 33.3771 23.3822 33.3033 23.1108L30.9533 14.4942L37.1666 9.83332C37.5349 9.55717 37.6095 9.03478 37.3333 8.66665ZM29.5 13.5C29.2266 13.705 29.106 14.0561 29.1958 14.3858L30.9583 20.8483L25.5542 16.0442C25.2508 15.7743 24.7972 15.7624 24.48 16.0158L18.465 20.8275L20.7842 14.4517C20.9095 14.1064 20.7941 13.72 20.5 13.5L15.8333 9.99999H21.6667C22.0077 10.0001 22.3144 9.79249 22.4408 9.47582L25 3.07665L27.5592 9.47582C27.6856 9.79249 27.9924 10.0001 28.3333 9.99999H34.1667L29.5 13.5Z" fill="#1357DD"/>
<path d="M16.4225 1.91113L15.244 3.08963L18.5774 6.42302L19.7559 5.24452L16.4225 1.91113Z" fill="#1357DD"/>
<path d="M33.5778 1.91039L30.2444 5.24377L31.4229 6.42227L34.7563 3.08889L33.5778 1.91039Z" fill="#1357DD"/>
<path d="M15.8334 15H10.8334V16.6667H15.8334V15Z" fill="#1357DD"/>
<path d="M39.1666 15H34.1666V16.6667H39.1666V15Z" fill="#1357DD"/>
<path d="M25.8333 20H24.1666V25H25.8333V20Z" fill="#1357DD"/>
</g>
<defs>
<clipPath id="clip0">
<rect width="50" height="50" fill="white"/>
</clipPath>
</defs>
</svg>
