<svg width="50" height="50" viewBox="0 0 50 50" fill="none" xmlns="http://www.w3.org/2000/svg">
<g clip-path="url(#clip0)">
<path d="M24.9996 22.5C24.878 22.5 24.7571 22.4733 24.6446 22.4208L10.478 15.7542C10.1863 15.6167 9.99963 15.3225 9.99963 15C9.99963 14.6775 10.1863 14.3833 10.478 14.2458L24.6446 7.57916C24.8696 7.47333 25.1296 7.47333 25.3546 7.57916L39.5213 14.2458C39.813 14.3833 39.9996 14.6775 39.9996 15C39.9996 15.3225 39.813 15.6167 39.5213 15.7542L25.3546 22.4208C25.2421 22.4733 25.1213 22.5 24.9996 22.5ZM12.7905 15L24.9996 20.7458L37.2088 15L24.9996 9.25416L12.7905 15Z" fill="#1357DD"/>
<path d="M25.0002 29.1667C24.8727 29.1667 24.7444 29.1375 24.6277 29.0792L14.6277 24.0792C14.3452 23.9375 14.1669 23.6492 14.1669 23.3334V16.9609C14.1669 16.6759 14.3127 16.41 14.5535 16.2575C14.7944 16.1042 15.0969 16.0867 15.3544 16.2067L25.0002 20.7459L34.6452 16.2067C34.9035 16.0859 35.206 16.1042 35.446 16.2575C35.6877 16.41 35.8335 16.6759 35.8335 16.9609V23.3334C35.8335 23.6492 35.6552 23.9375 35.3727 24.0792L25.3727 29.0792C25.256 29.1375 25.1277 29.1667 25.0002 29.1667ZM15.8335 22.8184L25.0002 27.4017L34.1669 22.8184V18.2742L25.3552 22.4209C25.1302 22.5267 24.8702 22.5267 24.6452 22.4209L15.8335 18.2742V22.8184Z" fill="#1357DD"/>
<path d="M39.1665 15.8334H24.9998C24.5398 15.8334 24.1665 15.46 24.1665 15C24.1665 14.54 24.5398 14.1667 24.9998 14.1667H39.1665C39.6265 14.1667 39.9998 14.54 39.9998 15C39.9998 15.46 39.6265 15.8334 39.1665 15.8334Z" fill="#1357DD"/>
<path d="M39.1668 23.3334C38.7068 23.3334 38.3335 22.96 38.3335 22.5V15C38.3335 14.54 38.7068 14.1667 39.1668 14.1667C39.6268 14.1667 40.0002 14.54 40.0002 15V22.5C40.0002 22.96 39.6268 23.3334 39.1668 23.3334Z" fill="#1357DD"/>
<path d="M24.9998 17.5C24.5398 17.5 24.1665 17.1267 24.1665 16.6667V13.3333C24.1665 12.8733 24.5398 12.5 24.9998 12.5C25.4598 12.5 25.8332 12.8733 25.8332 13.3333V16.6667C25.8332 17.1267 25.4598 17.5 24.9998 17.5Z" fill="#1357DD"/>
<path d="M37.4991 25.8334C37.3408 25.8334 37.18 25.7884 37.0375 25.6934C36.655 25.4384 36.5516 24.9209 36.8066 24.5376L38.4733 22.0376C38.7283 21.6543 39.245 21.5501 39.6291 21.8068C40.0116 22.0618 40.115 22.5793 39.86 22.9626L38.1933 25.4626C38.0325 25.7034 37.7683 25.8334 37.4991 25.8334Z" fill="#1357DD"/>
<path d="M40.8343 25.8334C40.5652 25.8334 40.301 25.7034 40.1402 25.4626L38.4735 22.9626C38.2185 22.5801 38.3218 22.0618 38.7043 21.8068C39.0868 21.5501 39.6043 21.6543 39.8602 22.0376L41.5268 24.5376C41.7818 24.9201 41.6785 25.4384 41.296 25.6934C41.1535 25.7884 40.9927 25.8334 40.8343 25.8334Z" fill="#1357DD"/>
<path d="M24.9998 24.9999C24.5398 24.9999 24.1665 24.6265 24.1665 24.1665V21.6665C24.1665 21.2065 24.5398 20.8332 24.9998 20.8332C25.4598 20.8332 25.8332 21.2065 25.8332 21.6665V24.1665C25.8332 24.6265 25.4598 24.9999 24.9998 24.9999Z" fill="#1357DD"/>
<path d="M49.1667 32.5001H0.833333C0.373333 32.5001 0 32.1268 0 31.6668V4.1676C0 2.32927 1.49583 0.833435 3.33417 0.833435H46.6658C48.5042 0.833435 50 2.32927 50 4.1676V31.6668C50 32.1268 49.6267 32.5001 49.1667 32.5001ZM1.66667 30.8334H48.3333V4.1676C48.3333 3.2476 47.5858 2.5001 46.6658 2.5001H3.33417C2.41417 2.5001 1.66667 3.2476 1.66667 4.1676V30.8334Z" fill="white"/>
<path d="M46.6658 39.1666H3.33417C1.49583 39.1666 0 37.6708 0 35.8324V31.6666C0 31.2066 0.373333 30.8333 0.833333 30.8333H49.1667C49.6267 30.8333 50 31.2066 50 31.6666V35.8324C50 37.6708 48.5042 39.1666 46.6658 39.1666ZM1.66667 32.4999V35.8324C1.66667 36.7524 2.41417 37.4999 3.33417 37.4999H46.6658C47.5858 37.4999 48.3333 36.7524 48.3333 35.8324V32.4999H1.66667Z" fill="white"/>
<path d="M27.5005 35.8333H22.5004C22.0404 35.8333 21.6671 35.46 21.6671 35C21.6671 34.54 22.0404 34.1666 22.5004 34.1666H27.5005C27.9605 34.1666 28.3338 34.54 28.3338 35C28.3338 35.46 27.9605 35.8333 27.5005 35.8333Z" fill="white"/>
<path d="M45.8329 32.4999H4.16622C3.70622 32.4999 3.33289 32.1266 3.33289 31.6666V4.99993C3.33289 4.53993 3.70622 4.1666 4.16622 4.1666H45.8329C46.2929 4.1666 46.6662 4.53993 46.6662 4.99993V31.6666C46.6662 32.1266 46.2929 32.4999 45.8329 32.4999ZM4.99955 30.8333H44.9996V5.83326H4.99955V30.8333Z" fill="white"/>
<path d="M35.8332 49.1667H14.1665C12.7882 49.1667 11.6665 48.045 11.6665 46.6667C11.6665 45.2884 12.7882 44.1667 14.1665 44.1667H35.8332C37.2115 44.1667 38.3332 45.2884 38.3332 46.6667C38.3332 48.045 37.2115 49.1667 35.8332 49.1667ZM14.1665 45.8334C13.7073 45.8334 13.3332 46.2075 13.3332 46.6667C13.3332 47.1259 13.7073 47.5 14.1665 47.5H35.8332C36.2923 47.5 36.6665 47.1259 36.6665 46.6667C36.6665 46.2075 36.2923 45.8334 35.8332 45.8334H14.1665Z" fill="white"/>
<path d="M34.167 45.8333H15.8337C15.3737 45.8333 15.0004 45.46 15.0004 45C15.0004 44.54 15.3737 44.1667 15.8337 44.1667C18.5987 44.1667 20.0004 42.2042 20.0004 38.3333C20.0004 37.8733 20.3737 37.5 20.8337 37.5H29.167C29.627 37.5 30.0004 37.8733 30.0004 38.3333C30.0004 42.2042 31.402 44.1667 34.167 44.1667C34.627 44.1667 35.0004 44.54 35.0004 45C35.0004 45.46 34.627 45.8333 34.167 45.8333ZM19.8929 44.1667H30.1087C29.082 43.03 28.4779 41.3375 28.357 39.1667H21.6445C21.5229 41.3375 20.9195 43.03 19.8929 44.1667Z" fill="white"/>
</g>
<defs>
<clipPath id="clip0">
<rect width="50" height="50" fill="white"/>
</clipPath>
</defs>
</svg>
