<svg width="50" height="50" viewBox="0 0 50 50" fill="none" xmlns="http://www.w3.org/2000/svg">
<path d="M5.81921 5.83056V49.1421C5.81921 49.6022 6.19215 49.9751 6.65222 49.9751H38.303C38.7628 49.9751 39.1357 49.6022 39.1357 49.1421V14.1599C39.1357 14.1414 39.1268 14.1256 39.125 14.1074C39.1209 14.0344 39.1065 13.9623 39.0825 13.8934C39.0732 13.8666 39.0667 13.8409 39.0551 13.8148C39.0146 13.7242 38.9583 13.6415 38.8883 13.5709L30.5593 5.24183C30.4886 5.17149 30.4056 5.11523 30.3143 5.07509C30.2893 5.06445 30.2639 5.05553 30.2378 5.04764C30.1682 5.02363 30.0958 5.00922 30.022 5.00441C30.008 5.00681 29.9915 4.99789 29.974 4.99789H6.65222C6.19215 4.99789 5.81921 5.37048 5.81921 5.83056ZM36.2922 13.3269H30.8067V7.84137L36.2922 13.3269ZM7.48488 6.66356H29.141V14.1599C29.141 14.6197 29.5139 14.9926 29.9736 14.9926H37.47V48.3094H7.48488V6.66356Z" fill="white"/>
<path d="M40.8014 43.3115V44.9772H43.3001C43.7602 44.9772 44.1331 44.6046 44.1331 44.1445V0.833006C44.1331 0.372932 43.7602 0 43.3001 0H11.6493C11.1892 0 10.8163 0.372932 10.8163 0.833006V3.33168H12.4823V1.66567H42.4671V43.3115H40.8014Z" fill="#1357DD"/>
<path d="M12.4824 16.6582H32.4722V18.3239H12.4824V16.6582Z" fill="white"/>
<path d="M12.4824 21.6H32.4722V23.2657H12.4824V21.6Z" fill="white"/>
<path d="M12.4825 11.6609H27.4825V13.3269H12.4825V11.6609Z" fill="white"/>
<path d="M12.4824 26.6528H32.4722V28.3188H12.4824V26.6528Z" fill="white"/>
<path d="M12.4824 31.7H32.4722V33.366H12.4824V31.7Z" fill="white"/>
<path d="M12.4824 36.6479H32.4722V38.314H12.4824V36.6479Z" fill="white"/>
<path d="M12.4824 41.7H32.4722V43.366H12.4824V41.7Z" fill="white"/>
</svg>
