<svg width="50" height="50" viewBox="0 0 50 50" fill="none" xmlns="http://www.w3.org/2000/svg">
<path d="M29.0897 15.992L32.4039 12.6782L33.5087 13.7829L30.1945 17.0971L29.0897 15.992Z" fill="#1357DD"/>
<path d="M32.2014 19.6575L36.7298 18.4441L37.1342 19.9535L32.6058 21.1666L32.2014 19.6575Z" fill="#1357DD"/>
<path d="M25.0198 13.5807L26.2332 9.05304L27.7423 9.4574L26.5293 13.9851L25.0198 13.5807Z" fill="#1357DD"/>
<path d="M12.5 6.12982H14.0625V15.5048H12.5V6.12982Z" fill="white"/>
<path d="M15.625 6.12982H17.1875V12.3798H15.625V6.12982Z" fill="white"/>
<path d="M18.75 6.12982H20.3125V9.25482H18.75V6.12982Z" fill="white"/>
<path d="M35.9375 29.5673H37.5V38.9423H35.9375V29.5673Z" fill="white"/>
<path d="M32.8125 32.6923H34.375V38.9423H32.8125V32.6923Z" fill="white"/>
<path d="M29.6875 35.8173H31.25V38.9423H29.6875V35.8173Z" fill="white"/>
<path d="M48.4375 43.6298V20.9736C48.4348 18.8171 46.6877 17.0696 44.5312 17.0673H41.4062V2.20718L38.393 0.0976562L36.161 1.66016L33.9298 0.0976562L31.6967 1.66016L29.4655 0.0976562L27.2335 1.66016L25 0.0976562L22.7688 1.66016L20.536 0.0976562L18.3041 1.66016L16.0709 0.0976562L13.839 1.66016L11.6055 0.0976562L8.59375 2.20718V17.0673H5.46875C3.3123 17.0696 1.56517 18.8171 1.5625 20.9736V43.6298H0V45.9736C0.00267029 48.1297 1.7498 49.8772 3.90625 49.8798H46.0938C48.2502 49.8772 49.9973 48.1297 50 45.9736V43.6298H48.4375ZM41.4062 23.3173H42.9688V40.5048H41.4062V23.3173ZM10.1562 3.02124L11.607 2.00539L13.8405 3.56789L16.0728 2.00539L18.3056 3.56789L20.5376 2.00539L22.7703 3.56789L25.0015 2.00539L27.2335 3.56789L29.4655 2.00539L31.6967 3.56789L33.9298 2.00539L36.161 3.56789L38.393 2.00539L39.8438 3.02124V40.5048H10.1562V3.02124ZM3.125 20.9736C3.125 19.6789 4.17442 18.6298 5.46875 18.6298H8.59375V21.7548H5.46875V42.0673H44.5312V21.7548H41.4062V18.6298H44.5312C45.8256 18.6298 46.875 19.6789 46.875 20.9736V43.6298H28.125V44.4111C28.125 44.8425 27.7752 45.1923 27.3438 45.1923H22.6562C22.2248 45.1923 21.875 44.8425 21.875 44.4111V43.6298H3.125V20.9736ZM8.59375 23.3173V40.5048H7.03125V23.3173H8.59375ZM48.4375 45.9736C48.4375 47.2679 47.3881 48.3173 46.0938 48.3173H3.90625C2.61192 48.3173 1.5625 47.2679 1.5625 45.9736V45.1923H20.446C20.7783 46.1281 21.6633 46.7533 22.6562 46.7548H27.3438C28.3367 46.7533 29.2217 46.1281 29.554 45.1923H48.4375V45.9736Z" fill="white"/>
<path d="M32.7008 24.0204L22.1627 13.4854L19.0274 21.6343L17.4881 23.1735L13.6219 27.0413L19.1452 32.5649L20.25 31.4602L23.0126 34.222C23.9277 35.1376 25.4117 35.138 26.3276 34.2228C27.2431 33.3077 27.2435 31.8234 26.3283 30.9078L23.5665 28.146L24.5549 27.158L32.7008 24.0204ZM19.1452 30.3555L15.8314 27.0413L18.0405 24.8314L21.3555 28.146L19.1452 30.3555ZM25.2221 32.0126C25.425 32.2086 25.5066 32.4993 25.4349 32.7725C25.3636 33.0456 25.15 33.2588 24.8768 33.3302C24.6037 33.4019 24.3134 33.3202 24.1173 33.1173L21.3547 30.3555L22.4602 29.2545L25.2221 32.0126ZM22.4602 27.0405L19.1452 23.7259L20.3671 22.5041L22.7578 16.2899L29.897 23.4287L23.6813 25.8171L22.4602 27.0405Z" fill="#1357DD"/>
<path d="M12.5164 30.3555L13.6211 29.2507L16.9361 32.5649L15.8313 33.6697L12.5164 30.3555Z" fill="#1357DD"/>
</svg>
