<svg width="50" height="50" viewBox="0 0 50 50" fill="none" xmlns="http://www.w3.org/2000/svg">
<g clip-path="url(#clip0)">
<path d="M42.9723 0H40.8225C39.8776 0 39.8776 1.46506 40.8225 1.46506H42.9723C45.1923 1.46506 46.9985 3.26473 46.9985 5.47677V22.4296C46.9985 24.6417 45.1924 26.4414 42.9723 26.4414H40.5341C40.3732 26.4414 40.2169 26.4944 40.089 26.5921L35.6151 30.0143V27.174C35.6151 26.7694 35.2873 26.4414 34.8826 26.4414H25.9673C25.2372 26.4414 24.5355 26.2487 23.9167 25.8824V17.6593C23.9167 16.119 23.1322 14.7582 21.9409 13.9531V5.47677C21.9409 3.26473 23.7471 1.46506 25.9673 1.46506H41.232C42.1769 1.46506 42.1769 0 41.232 0H25.9673C22.9393 0 20.4758 2.4569 20.4758 5.47677V13.3092C20.1404 13.2292 19.791 13.1855 19.4313 13.1855H6.0216C3.54848 13.1855 1.53638 15.1924 1.53638 17.6593V25.2411C1.53638 26.1859 3.00143 26.1859 3.00143 25.2411V17.6593C3.00143 16.0003 4.35622 14.6506 6.0216 14.6506H19.4314C21.0968 14.6506 22.4517 16.0003 22.4517 17.6593V26.174C22.4429 26.2387 22.4433 26.3038 22.4517 26.368V31.028C22.4517 31.1201 22.4461 31.2118 22.4378 31.3031H20.9272C19.2626 31.3031 17.8749 32.5045 17.5871 34.0835C17.5205 34.1086 17.4566 34.1437 17.3973 34.1894L14.1209 36.7192V34.7693C14.1209 34.3647 13.793 34.0368 13.3884 34.0368H6.0216C4.35622 34.0368 3.00143 32.687 3.00143 31.028V23.6362C3.00143 22.6914 1.53638 22.6914 1.53638 23.6362V31.0281C1.53638 33.495 3.54848 35.5019 6.0216 35.5019H12.656V38.2103C12.656 38.7979 13.3694 39.1504 13.8362 38.7902L17.5316 35.9369V44.1779C17.5316 46.0458 19.0549 47.5654 20.9273 47.5654H25.4225V49.2747C25.4225 49.8621 26.136 50.215 26.6027 49.8546L29.5676 47.5654H30.4435C32.3158 47.5654 33.8392 46.0457 33.8392 44.1779V36.8773C33.8392 35.9324 32.3741 35.9324 32.3741 36.8773V44.1779C32.3741 45.238 31.5081 46.1003 30.4435 46.1003H29.3176C29.1556 46.1003 28.9982 46.154 28.87 46.253L26.8875 47.7836V46.8327C26.8875 46.4282 26.5596 46.1002 26.155 46.1002H20.9272C19.8627 46.1002 18.9965 45.2378 18.9965 44.1778V34.6907C18.9965 33.6305 19.8626 32.7682 20.9272 32.7682H30.4435C31.508 32.7682 32.3741 33.6306 32.3741 34.6907V38.2868C32.3741 39.2317 33.8392 39.2317 33.8392 38.2868V34.6908C33.8392 32.8228 32.3158 31.3033 30.4435 31.3033H23.9084C23.9139 31.2117 23.9168 27.5119 23.9168 27.5119C24.5627 27.7716 25.2551 27.9066 25.9674 27.9066H34.1502V31.4969C34.1502 32.0831 34.8606 32.4359 35.3278 32.0788L40.7823 27.9066H42.9724C46.0002 27.9066 48.4637 25.4497 48.4637 22.4297V5.47677C48.4636 2.4569 46.0001 0 42.9723 0Z" fill="white"/>
<path d="M36.3004 5.41206C35.3703 5.17463 34.4225 5.9095 34.4225 6.87057C34.4225 7.92063 34.0398 8.93259 33.3455 9.71952L31.3272 12.0033C31.1965 11.8028 30.9707 11.6701 30.7136 11.6701H26.7735C26.3689 11.6701 26.041 11.9981 26.041 12.4026V21.2677C26.041 21.6722 26.3689 22.0002 26.7735 22.0002H30.7136C31.0096 22.0002 31.2639 21.8243 31.3795 21.5717C32.1772 22.0591 33.1015 22.3226 34.042 22.3226H41.0051C42.0691 22.3226 42.9469 21.3993 42.897 20.338C42.8748 19.8681 42.899 13.5573 42.899 13.4171C42.899 12.3728 42.0494 11.5231 41.0072 11.5231L37.3863 11.5123L37.5362 11.1572C38.2214 9.53463 38.1086 7.65311 37.2348 6.12388C37.0309 5.76661 36.6989 5.51393 36.3004 5.41206C36.6989 5.51393 35.9017 5.31029 36.3004 5.41206C36.6989 5.51393 35.3704 5.17463 36.3004 5.41206ZM29.981 20.5351H27.5061V13.1352H29.981V20.5351ZM41.0051 12.9881C41.2417 12.9881 41.4341 13.1805 41.4341 13.417C41.4341 13.5564 41.4326 13.9347 41.4306 14.4475C41.4198 17.2792 41.4126 19.961 41.4335 20.4068C41.4411 20.5677 41.3629 20.6749 41.3156 20.7245C41.2337 20.8103 41.1235 20.8575 41.0051 20.8575H34.042C33.212 20.8575 32.3997 20.5698 31.7544 20.0476L31.4461 19.7979V14.0812L34.4437 10.6892C35.3748 9.63396 35.8876 8.27781 35.8876 6.87048C35.8876 6.82906 35.9441 6.81832 35.9629 6.85055C36.6116 7.98577 36.6952 9.38256 36.1866 10.5871L35.6085 11.9564C35.5131 12.1823 35.5371 12.4408 35.6722 12.6453C35.8075 12.8499 36.036 12.9731 36.2811 12.9739L41.0051 12.9881Z" fill="#1357DD"/>
<path d="M7.80846 25.4429C7.40381 25.4429 7.07593 25.7709 7.07593 26.1754C7.07593 26.58 7.40381 26.9079 7.80846 26.9079H9.96775L9.56437 29.3476C9.49835 29.7467 9.76851 30.1238 10.1676 30.1899C10.2081 30.1966 10.2483 30.1998 10.2879 30.1998C10.6399 30.1998 10.9504 29.9454 11.0098 29.5866L11.4526 26.908H13.2198L12.8164 29.3477C12.7504 29.7468 13.0205 30.1239 13.4196 30.1899C13.4602 30.1967 13.5003 30.1999 13.5399 30.1999C13.892 30.1999 14.2024 29.9455 14.2618 29.5867L14.7047 26.9081H17.6439C18.0485 26.9081 18.3764 26.5802 18.3764 26.1756C18.3764 25.7711 18.0485 25.4431 17.6439 25.4431H14.9469L15.2423 23.6561H17.6439C18.0485 23.6561 18.3764 23.3281 18.3764 22.9236C18.3764 22.519 18.0485 22.191 17.6439 22.191H15.4846L15.8879 19.7513C15.954 19.3523 15.6838 18.9752 15.2847 18.9091C14.8852 18.8429 14.5085 19.1133 14.4425 19.5123L13.9997 22.1909H12.2325L12.6359 19.7512C12.7019 19.3522 12.4318 18.9751 12.0327 18.909C11.6326 18.8428 11.2566 19.1132 11.1905 19.5122L10.7477 22.1908H7.80846C7.40381 22.1908 7.07593 22.5188 7.07593 22.9234C7.07593 23.3279 7.40381 23.6559 7.80846 23.6559H10.5054L10.21 25.4429H7.80846ZM11.9904 23.6559H13.7576L13.4621 25.4429H11.695L11.9904 23.6559Z" fill="#1357DD"/>
<path d="M25.6764 36.5479C25.085 36.061 24.298 35.8688 23.5086 36.0608C22.4971 36.3064 21.4763 37.252 21.4763 38.8108C21.4763 39.7809 21.8304 40.623 22.5587 41.3853C23.1536 42.0079 24.0121 42.6 25.3422 43.3052C25.4496 43.3621 25.5674 43.3905 25.6853 43.3905C25.8032 43.3905 25.9211 43.3621 26.0284 43.3052C28.3489 42.075 29.8942 40.84 29.8942 38.8108C29.8942 37.2435 28.8373 36.3076 27.7896 36.0752C27.0026 35.9006 26.2396 36.086 25.6764 36.5479ZM28.4291 38.8108C28.4291 39.9053 27.7031 40.7147 25.6852 41.8255C23.6674 40.7146 22.9413 39.9052 22.9413 38.8108C22.9413 37.9964 23.4128 37.5916 23.8542 37.4844C23.9356 37.4647 24.0227 37.4535 24.1123 37.4535C24.4442 37.4535 24.8092 37.6069 25.0343 38.0432C25.1625 38.2915 25.4217 38.4454 25.6998 38.4396C25.979 38.434 26.2309 38.2702 26.349 38.017C26.5861 37.5089 27.0846 37.4195 27.4721 37.5056C27.9349 37.6081 28.4291 38.0049 28.4291 38.8108Z" fill="#1357DD"/>
</g>
<defs>
<clipPath id="clip0">
<rect width="50" height="50" fill="white"/>
</clipPath>
</defs>
</svg>
