<?xml version="1.0" standalone="no"?>
<!DOCTYPE svg PUBLIC "-//W3C//DTD SVG 20010904//EN"
 "http://www.w3.org/TR/2001/REC-SVG-20010904/DTD/svg10.dtd">
<svg version="1.0" xmlns="http://www.w3.org/2000/svg"
 width="512.000000pt" height="512.000000pt" viewBox="0 0 512.000000 512.000000"
 preserveAspectRatio="xMidYMid meet">
<metadata>
Created by potrace 1.11, written by Peter Selinger 2001-2013
</metadata>
<g transform="translate(0.000000,512.000000) scale(0.100000,-0.100000)"
fill="#000000" stroke="none">
<path d="M1960 5090 c-19 -3 -48 -14 -65 -22 -37 -20 -95 -76 -95 -92 0 -7 -5
-17 -12 -24 -14 -14 -17 -29 -22 -95 -1 -26 1 -50 6 -53 4 -3 6 -9 3 -14 -8
-14 33 -82 71 -116 92 -83 235 -81 327 5 52 47 68 88 72 176 5 147 -135 263
-285 235z"/>
<path d="M2517 5084 c-144 -37 -219 -192 -159 -328 56 -125 196 -178 322 -120
52 24 118 91 124 126 1 7 5 18 8 24 14 22 2 139 -19 179 -51 99 -165 148 -276
119z"/>
<path d="M3103 5089 c-68 -12 -125 -52 -163 -114 -32 -52 -43 -172 -19 -202 6
-7 9 -13 5 -13 -10 0 50 -79 76 -99 154 -121 389 -5 388 192 -1 152 -136 263
-287 236z"/>
<path d="M1358 4984 c-47 -30 -70 -69 -74 -125 -8 -147 180 -214 270 -96 32
42 40 109 18 152 -17 34 -64 77 -89 82 -53 11 -93 7 -125 -13z"/>
<path d="M3652 4894 c-149 -62 -111 -280 51 -288 78 -4 141 41 153 111 3 14 6
28 6 32 1 3 -1 22 -5 41 -9 48 -53 93 -102 107 -49 13 -66 13 -103 -3z"/>
<path d="M1355 4507 c-16 -5 -33 -15 -37 -21 -4 -6 -8 -7 -8 -2 0 15 -60 -45
-87 -87 -30 -48 -38 -150 -16 -207 52 -131 216 -192 339 -127 167 89 172 327
8 423 -50 29 -145 39 -199 21z"/>
<path d="M1940 4512 c-110 -30 -190 -146 -177 -254 12 -94 54 -155 134 -194
109 -54 224 -26 305 74 22 27 46 108 43 147 -5 84 -55 165 -125 203 -45 24
-136 36 -180 24z"/>
<path d="M3043 4495 c-152 -70 -189 -266 -74 -384 175 -179 464 -13 407 234
-13 56 -66 119 -129 152 -49 26 -147 25 -204 -2z"/>
<path d="M3650 4513 c-36 -12 -94 -46 -112 -66 -36 -41 -68 -120 -68 -169 0
-173 194 -296 345 -218 176 90 186 328 19 426 -42 25 -143 39 -184 27z"/>
<path d="M802 4415 c-113 -50 -120 -214 -12 -270 133 -69 272 64 210 201 -29
66 -129 101 -198 69z"/>
<path d="M2503 4409 c-122 -60 -99 -249 34 -277 185 -40 266 220 90 287 -42
16 -77 13 -124 -10z"/>
<path d="M4233 4423 c-13 -2 -23 -8 -23 -13 0 -5 -9 -11 -19 -15 -24 -7 -61
-80 -61 -118 0 -44 25 -92 64 -122 91 -69 229 -6 240 109 5 43 -27 111 -64
138 -26 19 -98 30 -137 21z"/>
<path d="M811 3938 c-217 -38 -273 -313 -89 -438 46 -32 56 -34 126 -34 85 0
138 21 183 72 150 171 3 440 -220 400z"/>
<path d="M1395 3942 c-1 -2 -15 -5 -31 -8 -50 -9 -121 -65 -151 -119 -21 -40
-27 -62 -27 -115 1 -104 49 -177 147 -220 52 -23 140 -26 166 -6 8 6 16 10 18
8 8 -6 61 29 89 60 62 68 77 183 35 266 -39 77 -125 132 -209 136 -19 0 -35 0
-37 -2z"/>
<path d="M3695 3940 c-168 -19 -266 -189 -197 -341 24 -52 68 -93 131 -121 85
-39 211 -8 273 66 51 61 69 158 43 235 -34 104 -142 173 -250 161z"/>
<path d="M4247 3938 c-89 -19 -155 -74 -182 -153 -41 -120 4 -237 115 -297
112 -61 254 -18 321 98 35 60 39 155 9 214 -26 51 -69 100 -87 100 -7 0 -13 4
-13 9 0 7 -47 23 -105 34 -11 2 -37 0 -58 -5z"/>
<path d="M265 3853 c-70 -13 -111 -49 -131 -112 -45 -146 145 -257 251 -147
84 87 46 223 -71 254 -16 5 -38 7 -49 5z"/>
<path d="M1959 3846 c-74 -23 -111 -71 -111 -145 1 -91 74 -159 159 -148 64 9
72 12 103 47 100 112 -8 290 -151 246z"/>
<path d="M2550 3850 c-19 -4 -44 -11 -55 -17 -24 -13 -72 -63 -61 -63 5 0 3
-7 -4 -15 -16 -19 -15 -88 1 -117 32 -60 79 -87 146 -84 54 1 93 22 119 61 72
110 -20 257 -146 235z"/>
<path d="M3135 3854 c-5 -1 -21 -5 -35 -8 -24 -5 -62 -34 -88 -68 -7 -9 -15
-37 -18 -62 -5 -37 -1 -54 20 -90 62 -105 213 -99 269 12 29 59 -1 162 -55
190 -29 15 -80 30 -93 26z"/>
<path d="M4832 3849 c-42 -8 -87 -42 -110 -84 -17 -33 -8 -119 16 -153 29 -40
82 -63 137 -61 140 8 190 203 71 275 -44 27 -65 31 -114 23z"/>
<path d="M205 3362 c-67 -23 -127 -80 -154 -148 -27 -69 -12 -167 37 -232 26
-35 94 -79 134 -88 134 -31 277 65 294 198 2 15 5 31 6 35 4 15 -14 87 -28
115 -21 40 -66 84 -110 106 -40 19 -140 27 -179 14z"/>
<path d="M767 3357 c-20 -7 -56 -29 -78 -51 -130 -122 -94 -325 71 -398 36
-16 59 -19 115 -15 38 2 71 10 73 16 2 6 10 11 17 11 24 0 80 56 104 106 28
56 31 140 8 195 -16 36 -79 113 -94 115 -4 0 -25 8 -45 17 -43 19 -116 21
-171 4z"/>
<path d="M4190 3349 c-156 -70 -189 -274 -65 -396 64 -63 181 -81 263 -42 58
28 72 41 109 101 56 89 39 217 -40 293 -67 65 -180 83 -267 44z"/>
<path d="M4762 3349 c-45 -21 -90 -63 -117 -109 -15 -26 -20 -52 -19 -105 1
-109 39 -172 134 -223 29 -15 54 -19 102 -18 62 3 74 5 113 22 45 19 117 107
120 146 0 3 3 9 6 12 12 13 -1 117 -20 158 -53 116 -202 171 -319 117z"/>
<path d="M1390 3280 c-65 -18 -108 -70 -115 -141 -5 -48 11 -86 52 -123 63
-58 170 -46 219 26 31 44 37 78 23 131 -9 32 -60 97 -78 97 -3 0 -22 4 -41 9
-19 4 -46 5 -60 1z"/>
<path d="M2018 3285 c-2 -2 -20 -6 -39 -7 -50 -5 -94 -35 -116 -82 -28 -61
-21 -119 21 -164 53 -59 128 -70 194 -28 82 52 96 168 28 232 -26 25 -81 55
-88 49z"/>
<path d="M2532 3275 c-24 -8 -53 -22 -64 -32 -73 -66 -63 -183 21 -239 35 -23
48 -26 92 -22 62 6 97 31 126 87 23 45 22 73 -3 132 -13 31 -56 68 -81 71 -5
0 -17 4 -28 8 -11 4 -39 2 -63 -5z"/>
<path d="M3127 3284 c-2 -3 -14 -6 -25 -9 -111 -21 -147 -178 -59 -257 104
-94 267 -8 251 133 -4 36 -37 90 -65 108 -21 12 -96 31 -102 25z"/>
<path d="M3667 3275 c-42 -17 -86 -62 -95 -98 -12 -45 -6 -105 12 -123 9 -8
16 -19 16 -23 0 -4 18 -18 41 -30 67 -38 134 -27 192 31 10 10 15 18 12 18 -4
0 0 6 7 14 23 23 21 96 -5 141 -35 62 -119 95 -180 70z"/>
<path d="M286 2803 c-2 -2 -22 -6 -46 -8 -147 -15 -244 -190 -184 -329 26 -59
94 -121 151 -137 59 -16 74 -16 140 0 57 14 119 64 149 122 25 49 28 153 5
204 -21 46 -85 115 -106 115 -8 0 -15 3 -15 8 0 8 -87 31 -94 25z"/>
<path d="M4783 2786 c-69 -29 -110 -67 -140 -133 -74 -161 52 -341 236 -335
164 5 276 199 200 346 -11 23 -28 49 -37 60 -30 32 -96 65 -147 71 -27 4 -52
8 -55 10 -3 1 -28 -7 -57 -19z"/>
<path d="M782 2694 c-65 -34 -97 -114 -72 -188 12 -38 82 -102 100 -91 5 3 10
2 10 -3 0 -5 10 -8 23 -6 12 1 32 3 44 3 33 1 100 66 109 104 7 30 8 40 5 86
0 11 -18 38 -40 61 -34 36 -45 42 -92 46 -39 3 -63 0 -87 -12z"/>
<path d="M1365 2700 c-19 -8 -44 -30 -72 -64 -21 -24 -24 -105 -6 -140 49 -97
161 -119 239 -48 82 75 58 214 -44 253 -29 11 -90 11 -117 -1z"/>
<path d="M1935 2696 c-119 -53 -117 -222 4 -275 25 -10 56 -17 70 -14 14 3 32
6 40 6 8 0 31 17 52 38 61 61 65 152 9 209 -49 50 -113 63 -175 36z"/>
<path d="M2493 2690 c-90 -59 -98 -175 -19 -249 14 -14 26 -21 26 -17 0 5 6 4
13 -2 33 -28 122 -13 160 26 98 102 43 249 -95 259 -42 3 -60 -1 -85 -17z"/>
<path d="M3070 2691 c-39 -21 -80 -89 -80 -133 0 -44 35 -103 76 -128 106 -66
243 22 228 146 -13 107 -129 167 -224 115z"/>
<path d="M3640 2688 c-46 -32 -69 -66 -74 -113 -15 -155 185 -230 275 -103 33
46 33 131 0 175 -48 64 -140 82 -201 41z"/>
<path d="M4220 2693 c-105 -55 -107 -205 -3 -266 86 -50 201 4 222 104 10 46
-11 104 -51 142 -40 39 -114 48 -168 20z"/>
<path d="M220 2223 c-177 -60 -240 -256 -125 -390 145 -170 423 -70 423 152 0
96 -33 156 -110 206 -36 23 -60 31 -110 34 -34 2 -70 1 -78 -2z"/>
<path d="M790 2222 c-73 -20 -148 -92 -169 -163 -35 -116 25 -247 136 -295 74
-31 191 -14 246 37 11 10 24 19 27 19 15 0 61 109 64 151 9 132 -89 245 -221
254 -32 2 -69 1 -83 -3z"/>
<path d="M1346 2216 c-197 -74 -218 -341 -34 -441 50 -27 142 -39 166 -22 6 5
12 7 12 3 0 -4 18 3 40 14 177 90 180 343 6 432 -51 26 -139 33 -190 14z"/>
<path d="M1928 2221 c-73 -24 -147 -98 -164 -166 -11 -43 -11 -98 -1 -125 36
-95 62 -126 134 -160 119 -56 255 -6 323 120 20 36 21 144 3 188 -19 46 -76
106 -121 128 -41 19 -135 27 -174 15z"/>
<path d="M2495 2218 c-95 -35 -153 -110 -162 -207 -10 -105 38 -191 131 -238
97 -49 219 -25 291 59 128 150 29 382 -168 394 -34 2 -75 -1 -92 -8z"/>
<path d="M3067 2216 c-61 -23 -102 -56 -130 -106 -104 -186 55 -401 264 -357
71 14 148 85 172 157 50 150 -53 305 -210 316 -36 3 -73 -1 -96 -10z"/>
<path d="M3648 2220 c-76 -23 -145 -95 -165 -170 -41 -153 75 -301 236 -302
156 -2 271 151 231 304 -19 70 -93 147 -160 166 -32 9 -116 11 -142 2z"/>
<path d="M4215 2218 c-207 -73 -224 -355 -28 -448 163 -77 344 41 343 224 -1
157 -168 276 -315 224z"/>
<path d="M4756 2203 c-47 -24 -101 -80 -118 -122 -6 -14 -12 -52 -14 -85 -4
-97 44 -179 131 -223 95 -49 214 -27 286 54 43 48 62 99 62 168 0 170 -193
286 -347 208z"/>
<path d="M780 1646 c-55 -17 -105 -56 -135 -104 -22 -35 -29 -60 -33 -117 -3
-47 -1 -75 7 -79 6 -4 11 -16 11 -26 0 -27 78 -106 125 -126 51 -21 138 -21
193 1 53 22 118 94 133 149 33 119 -16 233 -125 288 -46 24 -126 30 -176 14z"/>
<path d="M1388 1655 c-2 -2 -15 -5 -28 -7 -62 -10 -126 -65 -159 -138 -39 -89
-12 -212 61 -275 98 -85 252 -76 339 18 134 148 36 393 -162 403 -26 1 -49 0
-51 -1z"/>
<path d="M1913 1645 c-18 -5 -33 -13 -33 -17 0 -4 -6 -8 -13 -8 -19 0 -72 -59
-95 -105 -27 -56 -24 -145 7 -205 43 -85 117 -131 211 -133 167 -3 282 152
233 313 -39 127 -176 195 -310 155z"/>
<path d="M2505 1652 c-4 -4 -10 -7 -13 -8 -27 -3 -70 -30 -102 -64 -142 -148
-34 -403 172 -404 133 0 238 96 244 226 7 139 -91 247 -230 254 -35 1 -67 0
-71 -4z"/>
<path d="M3031 1632 c-51 -27 -83 -58 -108 -105 -22 -41 -24 -51 -24 -114 -2
-173 187 -290 345 -214 103 50 154 163 126 279 -17 74 -90 151 -160 170 -8 2
-42 5 -75 6 -46 2 -69 -3 -104 -22z"/>
<path d="M3637 1646 c-166 -60 -222 -255 -111 -385 132 -154 380 -90 420 109
22 110 -32 217 -133 265 -46 22 -131 27 -176 11z"/>
<path d="M4221 1650 c-44 -10 -110 -57 -138 -99 -73 -109 -45 -257 63 -331 47
-33 75 -42 134 -44 40 -2 119 21 137 40 7 7 24 21 38 32 66 52 88 192 43 277
-54 101 -163 150 -277 125z"/>
<path d="M210 1549 c-45 -20 -81 -76 -82 -126 -4 -159 204 -219 281 -83 47 84
14 178 -76 216 -39 17 -74 15 -123 -7z"/>
<path d="M4782 1542 c-49 -31 -76 -85 -70 -139 6 -50 21 -77 61 -107 72 -55
181 -31 223 49 72 138 -85 282 -214 197z"/>
<path d="M1370 1077 c-37 -9 -82 -38 -115 -71 -80 -82 -81 -239 -2 -324 93
-101 255 -104 351 -8 94 95 95 241 3 336 -59 61 -156 89 -237 67z"/>
<path d="M1919 1071 c-59 -27 -98 -60 -126 -109 -36 -61 -38 -164 -5 -229 20
-37 94 -111 104 -102 2 2 15 -3 28 -12 38 -24 134 -19 194 10 51 25 102 85
122 144 25 72 -5 186 -62 241 -65 63 -183 89 -255 57z"/>
<path d="M2510 1077 c-172 -45 -235 -270 -112 -400 90 -95 251 -98 341 -7 65
66 88 143 68 232 -27 124 -170 209 -297 175z"/>
<path d="M3070 1073 c-25 -8 -48 -20 -52 -27 -4 -6 -8 -7 -8 -1 0 6 -20 -12
-44 -38 -119 -132 -65 -336 104 -392 202 -67 387 153 286 342 -53 100 -180
152 -286 116z"/>
<path d="M3647 1075 c-106 -27 -185 -138 -179 -250 1 -16 15 -57 32 -90 24
-50 38 -66 86 -95 49 -30 65 -34 123 -34 75 0 126 20 176 69 93 94 90 249 -8
344 -17 17 -37 31 -44 31 -7 0 -13 4 -13 9 0 9 -56 22 -106 26 -11 1 -42 -4
-67 -10z"/>
<path d="M797 976 c-56 -29 -79 -64 -83 -125 -5 -89 60 -156 149 -156 55 1
117 29 117 52 0 7 4 13 9 13 15 0 29 54 25 98 -10 107 -121 167 -217 118z"/>
<path d="M4235 988 c-105 -37 -138 -173 -61 -249 36 -34 49 -40 106 -44 103
-7 176 89 145 191 -13 43 -57 98 -69 86 -3 -3 -6 -1 -6 5 0 5 -6 10 -12 10 -7
0 -26 3 -43 6 -16 3 -43 1 -60 -5z"/>
<path d="M1925 494 c-52 -17 -82 -40 -115 -86 -37 -51 -50 -94 -45 -157 7 -92
59 -166 142 -203 153 -68 331 41 338 207 8 172 -157 295 -320 239z"/>
<path d="M2485 491 c-53 -20 -122 -94 -137 -145 -47 -166 62 -318 229 -318 89
0 166 44 211 122 35 59 37 163 5 225 -59 112 -191 162 -308 116z"/>
<path d="M3069 496 c-133 -47 -200 -206 -139 -330 53 -111 171 -162 293 -127
101 29 162 119 161 238 0 65 -4 77 -33 120 -66 96 -179 136 -282 99z"/>
<path d="M1361 399 c-57 -34 -68 -52 -77 -119 -21 -151 196 -226 276 -95 82
134 -67 295 -199 214z"/>
<path d="M3662 409 c-97 -38 -125 -176 -49 -245 42 -39 73 -52 119 -48 136 12
188 188 81 270 -39 29 -108 40 -151 23z"/>
</g>
</svg>
